<svg width="24" height="16" fill="none" xmlns="http://www.w3.org/2000/svg"><path d="M23 5.71a8.5 8.5 0 00-.91-4.13 2.92 2.92 0 00-1.72-1A78.36 78.36 0 0012 .27a78.45 78.45 0 00-8.34.3 2.87 2.87 0 00-1.46.74c-.9.83-1 2.25-1.1 3.45a48.289 48.289 0 000 6.48 9.55 9.55 0 00.3 2c.12.505.365.972.71 1.36a2.86 2.86 0 001.49.78c2.156.266 4.328.376 6.5.33 3.5.05 6.57 0 10.2-.28a2.88 2.88 0 001.53-.78c.28-.28.49-.623.61-1a10.58 10.58 0 00.52-3.4c.04-.56.04-3.94.04-4.54zM9.74 10.85V4.66l5.92 3.11c-1.66.92-3.85 1.96-5.92 3.08z" fill="#fff"/></svg>