<svg width="48" height="38" fill="none" xmlns="http://www.w3.org/2000/svg"><path d="M17.494 7.228h12.965v23.726H17.494V7.228z" fill="#BDBDBD"/><path d="M18.317 19.091c0-4.82 2.222-9.097 5.639-11.863C21.445 5.216 18.276 4 14.818 4 6.627 4 0 10.749 0 19.091c0 8.342 6.627 15.09 14.818 15.09 3.457 0 6.627-1.215 9.138-3.227-3.417-2.725-5.64-7.042-5.64-11.863z" fill="#828282"/><path d="M47.952 19.091c0 8.342-6.626 15.09-14.817 15.09-3.458 0-6.627-1.215-9.138-3.227 3.457-2.767 5.639-7.042 5.639-11.863 0-4.82-2.223-9.097-5.64-11.863C26.509 5.216 29.678 4 33.136 4c8.19 0 14.818 6.79 14.818 15.091z" fill="#E0E0E0"/></svg>