<svg width="40" height="40" fill="none" xmlns="http://www.w3.org/2000/svg"><g clip-path="url(#clip0)"><path d="M39.402 24.837C36.73 35.557 25.868 42.073 15.164 39.4 4.444 36.729-2.073 25.868.599 15.164 3.272 4.444 14.117-2.073 24.837.599c10.705 2.657 17.237 13.518 14.565 24.238z" fill="#E0E0E0"/><path d="M29.523 17.508c.39-2.656-1.625-4.094-4.406-5.047l.906-3.61-2.187-.546-.875 3.516a58.136 58.136 0 00-1.766-.407l.875-3.53-2.188-.548-.89 3.594c-.485-.11-.953-.219-1.406-.328v-.016l-3.032-.75-.578 2.344s1.625.375 1.594.39c.89.22 1.047.813 1.016 1.282l-1.032 4.11c.063.015.141.03.235.077a1.294 1.294 0 01-.235-.062l-1.437 5.75c-.11.265-.39.672-1 .515.015.032-1.594-.39-1.594-.39l-1.094 2.515 2.86.72c.531.14 1.047.265 1.562.405l-.906 3.641 2.188.547.906-3.61c.593.157 1.187.313 1.75.454l-.89 3.593 2.187.547.906-3.64c3.75.703 6.562.422 7.734-2.97.953-2.718-.047-4.296-2.015-5.327 1.453-.328 2.53-1.281 2.812-3.219zm-5.015 7.031c-.672 2.72-5.266 1.25-6.75.875l1.203-4.828c1.484.375 6.265 1.11 5.547 3.953zm.687-7.078c-.625 2.485-4.438 1.219-5.672.906l1.094-4.375c1.234.313 5.219.891 4.578 3.47z" fill="#0D0D2B"/></g><defs><clipPath id="clip0"><path fill="#fff" d="M0 0h40v40H0z"/></clipPath></defs></svg>